<svg xmlns="http://www.w3.org/2000/svg" width="1200" height="800" viewBox="0 0 1200 800" role="img" aria-label="Retrospective cover">
  <defs>
    <linearGradient id="bg" x1="0" y1="0" x2="1" y2="1">
      <stop offset="0%" stop-color="#f8f1df"/>
      <stop offset="55%" stop-color="#efe4cc"/>
      <stop offset="100%" stop-color="#e6d5b5"/>
    </linearGradient>
    <linearGradient id="wash" x1="0" y1="0" x2="1" y2="0">
      <stop offset="0%" stop-color="#ba8b55" stop-opacity="0.22"/>
      <stop offset="100%" stop-color="#dcc39f" stop-opacity="0.14"/>
    </linearGradient>
    <pattern id="grid" width="32" height="32" patternUnits="userSpaceOnUse">
      <path d="M 32 0 L 0 0 0 32" fill="none" stroke="#8d724f" stroke-opacity="0.09" stroke-width="1"/>
    </pattern>
    <filter id="paper" x="-20%" y="-20%" width="140%" height="140%">
      <feTurbulence type="fractalNoise" baseFrequency="0.85" numOctaves="2" seed="7" result="noise"/>
      <feColorMatrix in="noise" type="matrix" values="1 0 0 0 0  0 1 0 0 0  0 0 1 0 0  0 0 0 .07 0"/>
    </filter>
    <filter id="shadow" x="-20%" y="-20%" width="140%" height="140%">
      <feDropShadow dx="0" dy="14" stdDeviation="16" flood-color="#2f2314" flood-opacity="0.18"/>
    </filter>
  </defs>

  <rect width="1200" height="800" fill="url(#bg)"/>
  <rect width="1200" height="800" fill="url(#grid)" opacity="0.55"/>
  <rect width="1200" height="800" fill="url(#wash)"/>
  <rect x="0" y="0" width="1200" height="800" fill="#ffffff" filter="url(#paper)" opacity="0.7"/>

  <circle cx="1030" cy="170" r="170" fill="#ba8b55" opacity="0.10"/>
  <circle cx="210" cy="620" r="220" fill="#dcc39f" opacity="0.10"/>
  <path d="M90 110 C250 30, 470 40, 620 120" fill="none" stroke="#8d724f" stroke-opacity="0.22" stroke-width="2" stroke-dasharray="5 9"/>
  <path d="M690 650 C840 560, 1010 575, 1120 670" fill="none" stroke="#8d724f" stroke-opacity="0.20" stroke-width="2" stroke-dasharray="4 10"/>

  <g transform="translate(118,114) rotate(-2)" filter="url(#shadow)">
    <rect x="0" y="0" width="964" height="572" rx="24" fill="#fffaf0" fill-opacity="0.94" stroke="#c7ac86" stroke-opacity="0.5"/>
    <rect x="18" y="18" width="928" height="536" rx="18" fill="none" stroke="#b08e61" stroke-opacity="0.22" stroke-dasharray="5 7"/>
    <rect x="34" y="34" width="14" height="500" rx="7" fill="#d7c2a0" opacity="0.85"/>
    <g fill="#9d7b4f" opacity="0.6">
      <circle cx="41" cy="68" r="2.2"/><circle cx="41" cy="98" r="2.2"/><circle cx="41" cy="128" r="2.2"/>
      <circle cx="41" cy="158" r="2.2"/><circle cx="41" cy="188" r="2.2"/><circle cx="41" cy="218" r="2.2"/>
      <circle cx="41" cy="248" r="2.2"/><circle cx="41" cy="278" r="2.2"/><circle cx="41" cy="308" r="2.2"/>
    </g>

    <rect x="76" y="72" width="158" height="34" rx="17" fill="#ba8b55" fill-opacity="0.16" stroke="#ba8b55" stroke-opacity="0.35"/>
    <text x="95" y="94" font-size="16" font-family="'Noto Sans KR', Arial, sans-serif" letter-spacing="2" fill="#6a5333">PAGE ARCHIVE</text>

    <text x="76" y="196" font-size="58" font-weight="700" font-family="'Nanum Myeongjo', Georgia, serif" fill="#2b2014">Retrospective</text>
    <text x="76" y="244" font-size="22" font-family="'Noto Sans KR', Arial, sans-serif" fill="#6e5a3f">Craft notes, references, and field records</text>

    <path d="M76 290 H560" stroke="#9f7f54" stroke-opacity="0.25" stroke-width="2"/>
    <path d="M76 328 H892" stroke="#9f7f54" stroke-opacity="0.12" stroke-width="1"/>
    <path d="M76 362 H844" stroke="#9f7f54" stroke-opacity="0.12" stroke-width="1"/>
    <path d="M76 396 H900" stroke="#9f7f54" stroke-opacity="0.12" stroke-width="1"/>
    <path d="M76 430 H792" stroke="#9f7f54" stroke-opacity="0.12" stroke-width="1"/>

    <g transform="translate(706,64) rotate(2)">
      <rect x="0" y="0" width="196" height="110" rx="14" fill="#f4ead3" stroke="#c7ac86" stroke-opacity="0.65"/>
      <rect x="12" y="12" width="172" height="86" rx="10" fill="none" stroke="#ae8d62" stroke-dasharray="4 5" stroke-opacity="0.35"/>
      <text x="24" y="42" font-size="13" font-family="Arial, sans-serif" letter-spacing="1.6" fill="#7b6140">STAMP</text>
      <text x="24" y="71" font-size="22" font-weight="700" font-family="'Nanum Myeongjo', Georgia, serif" fill="#2d2317">RT-02</text>
      <text x="24" y="91" font-size="12" font-family="Arial, sans-serif" fill="#7b6140">craft.do style cover</text>
    </g>

    <g transform="translate(718,418)">
      <rect x="0" y="0" width="206" height="70" rx="35" fill="#dcc39f" fill-opacity="0.14" stroke="#dcc39f" stroke-opacity="0.28"/>
      <text x="22" y="43" font-size="24" font-weight="700" font-family="Arial, sans-serif" letter-spacing="2" fill="#3a2c1d">INDEX</text>
    </g>

    <g transform="translate(612,232) rotate(-6)">
      <rect x="0" y="0" width="188" height="28" rx="6" fill="#d6c4a4" fill-opacity="0.78"/>
      <text x="14" y="19" font-size="12" font-family="Arial, sans-serif" letter-spacing="1.3" fill="#614b30">FIELD NOTE / REFERENCE</text>
    </g>
  </g>

  <g opacity="0.45">
    <rect x="140" y="88" width="190" height="24" rx="8" fill="#ffffff"/>
    <rect x="962" y="98" width="126" height="22" rx="8" fill="#ffffff"/>
  </g>
</svg>
